<svg width="165" height="66" viewBox="0 0 165 66" fill="none" xmlns="http://www.w3.org/2000/svg">
<path d="M17.4414 37V12.3906H20.5V33.9766H30.6602V37H17.4414ZM32.6289 31.7969V23.1133C32.6289 22.0117 33.1211 20.9336 34.1055 19.8789C35.3242 18.6133 36.8477 17.9805 38.6758 17.9805V20.8281C37.293 20.8281 36.332 21.4023 35.793 22.5508C35.6289 22.9023 35.5469 23.2539 35.5469 23.6055V31.3398C35.5469 32.207 35.9453 32.9453 36.7422 33.5547C37.3047 33.9766 37.9492 34.1875 38.6758 34.1875V37.0352C36.4492 37.0352 34.7266 36.1328 33.5078 34.3281C32.9219 33.4375 32.6289 32.5938 32.6289 31.7969ZM40.1875 37.0352V34.1875C41.4297 34.1875 42.3203 33.625 42.8594 32.5C43.0469 32.125 43.1406 31.7617 43.1406 31.4102V23.6055C43.1406 22.6445 42.7305 21.8828 41.9102 21.3203C41.3945 20.9922 40.8086 20.8281 40.1523 20.8281V17.9805C42.3086 17.9805 43.9727 18.8594 45.1445 20.6172C45.7305 21.4844 46.0234 22.3164 46.0234 23.1133V31.7969C46.0234 32.9453 45.5312 34.0586 44.5469 35.1367C43.3984 36.3789 41.9453 37.0117 40.1875 37.0352ZM48.168 22.4102V19.5273H50.4883V17.4883C50.4883 16.1758 50.9219 14.9805 51.7891 13.9023C52.75 12.7773 53.9922 12.2031 55.5156 12.1797H56.8164L56.1484 15.0273H55.4805C54.1445 15.0977 53.4648 15.918 53.4414 17.4883V19.5625L55.832 19.5273V22.4102H53.4414V37H50.4883V22.4102H48.168ZM57.8008 21.0391V18.1914H60.1211V12.1094H63.1094V18.1914H65.3594V21.0742H63.1094V31.1641C63.1094 32.8281 63.7891 33.7539 65.1484 33.9414C65.4062 33.9883 65.6641 34.0117 65.9219 34.0117H66.4141L67.082 37H65.8164C62.9336 36.9766 61.1641 35.8984 60.5078 33.7656C60.2734 32.9688 60.1562 31.9844 60.1562 30.8125L60.1211 21.0391H57.8008ZM68.6641 37V12.3906H71.7227V23.1133H74.8867V26.1016H71.7227V37H68.6641ZM76.6445 26.1016V23.1133H79.7734V12.3906H82.8672V37H79.7734V26.1016H76.6445ZM85.6094 31.7969V23.1133C85.6094 22.0117 86.1016 20.9336 87.0859 19.8789C88.3047 18.6133 89.8281 17.9805 91.6562 17.9805V20.8281C90.2734 20.8281 89.3125 21.4023 88.7734 22.5508C88.6094 22.9023 88.5273 23.2539 88.5273 23.6055V31.3398C88.5273 32.207 88.9258 32.9453 89.7227 33.5547C90.2852 33.9766 90.9297 34.1875 91.6562 34.1875V37.0352C89.4297 37.0352 87.707 36.1328 86.4883 34.3281C85.9023 33.4375 85.6094 32.5938 85.6094 31.7969ZM93.168 37.0352V34.1875C94.4102 34.1875 95.3008 33.625 95.8398 32.5C96.0273 32.125 96.1211 31.7617 96.1211 31.4102V23.6055C96.1211 22.6445 95.7109 21.8828 94.8906 21.3203C94.375 20.9922 93.7891 20.8281 93.1328 20.8281V17.9805C95.2891 17.9805 96.9531 18.8594 98.125 20.6172C98.7109 21.4844 99.0039 22.3164 99.0039 23.1133V31.7969C99.0039 32.9453 98.5117 34.0586 97.5273 35.1367C96.3789 36.3789 94.9258 37.0117 93.168 37.0352ZM101.676 31.9375V18.0156H104.664V31.5859C104.664 32.4297 105.086 33.1328 105.93 33.6953C106.492 34.0469 107.113 34.2227 107.793 34.2227V37.1758C105.543 37.1758 103.809 36.2969 102.59 34.5391C101.98 33.6484 101.676 32.7812 101.676 31.9375ZM109.34 37.1758V34.2227C110.605 34.2227 111.531 33.7188 112.117 32.7109C112.328 32.3359 112.434 31.9609 112.434 31.5859V18.0156H115.422V31.9375C115.422 33.0391 114.918 34.1289 113.91 35.207C112.691 36.4961 111.168 37.1523 109.34 37.1758ZM117.461 32.0078L120.238 31.4805C120.238 32.5352 120.789 33.3672 121.891 33.9766C122.43 34.2344 122.945 34.375 123.438 34.3984V37.1758C121.164 37.1758 119.465 36.3555 118.34 34.7148C117.754 33.8477 117.461 32.9453 117.461 32.0078ZM117.637 23.3594C117.637 21.2266 118.609 19.6445 120.555 18.6133C121.492 18.1211 122.43 17.875 123.367 17.875V20.6172C122.289 20.6172 121.457 21.0625 120.871 21.9531C120.566 22.3984 120.414 22.8672 120.414 23.3594C120.414 24.1094 121 24.7188 122.172 25.1875C123.062 25.5625 124.785 26.0547 127.34 26.6641C128.934 26.9922 130.07 27.7773 130.75 29.0195C131.102 29.6758 131.277 30.4141 131.277 31.2344C131.277 33.4844 130.375 35.1484 128.57 36.2266C127.516 36.8594 126.309 37.1758 124.949 37.1758V34.3984C126.027 34.3984 126.93 34.0234 127.656 33.2734C128.172 32.7344 128.43 32.1016 128.43 31.375C128.43 30.4375 127.504 29.6875 125.652 29.125C125.184 28.9844 124.434 28.7852 123.402 28.5273C122.301 28.2695 121.504 28.0586 121.012 27.8945C119.23 27.1914 118.152 26.125 117.777 24.6953C117.684 24.2734 117.637 23.8281 117.637 23.3594ZM124.914 20.6523V17.875C126.93 17.875 128.559 18.625 129.801 20.125C130.574 21.0859 130.961 22.0938 130.961 23.1484L128.184 23.6055C128.184 22.3164 127.48 21.4141 126.074 20.8984C125.652 20.7344 125.266 20.6523 124.914 20.6523ZM133.352 31.7969V23.0781C133.375 22 133.891 20.9336 134.898 19.8789C136.117 18.6367 137.594 18.0039 139.328 17.9805V20.7578C138.203 20.7578 137.324 21.25 136.691 22.2344C136.434 22.6562 136.305 23.043 136.305 23.3945V25.7852H144.18V23.3945C144.18 22.3398 143.641 21.5664 142.562 21.0742C142.07 20.8398 141.566 20.7227 141.051 20.7227V17.9805C142.668 17.9805 144.109 18.5547 145.375 19.7031C146.43 20.7109 146.969 21.8242 146.992 23.043V28.6328H136.305V31.7969C136.305 32.4531 136.68 33.0625 137.43 33.625C138.039 34.0469 138.684 34.2578 139.363 34.2578V37C137.23 37 135.555 36.1328 134.336 34.3984C133.68 33.4844 133.352 32.6172 133.352 31.7969ZM141.051 37V34.2227C142.457 34.2227 143.512 33.6133 144.215 32.3945C144.355 32.1367 144.461 31.8906 144.531 31.6562L147.027 32.5703C146.605 34.1875 145.645 35.4062 144.145 36.2266C143.184 36.7422 142.152 37 141.051 37Z" fill="white"/>
<path d="M0.312 63L3.624 58.608L0.516 54.48H1.5L4.332 58.272H5.496V54.48H6.324V58.272H7.476L10.32 54.48H11.304L8.184 58.608L11.496 63H10.524L7.5 59.04H6.324V63H5.496V59.04H4.308L1.284 63H0.312ZM14.3802 63V54.48H15.2082V61.848L20.4882 54.48H21.2682V63H20.4402V55.764L15.2202 63H14.3802ZM30.9374 55.224H27.9014V63H27.0614V55.224H24.0254V54.48H30.9374V55.224ZM39.4136 63V55.224H35.9336L35.8856 57.024C35.8456 58.2 35.7616 59.176 35.6336 59.952C35.5056 60.728 35.3256 61.34 35.0936 61.788C34.8616 62.228 34.5776 62.544 34.2416 62.736C33.9056 62.92 33.5056 63.012 33.0416 63.012V62.268C33.3536 62.268 33.6296 62.188 33.8696 62.028C34.1096 61.868 34.3136 61.588 34.4816 61.188C34.6496 60.788 34.7816 60.236 34.8776 59.532C34.9816 58.82 35.0496 57.92 35.0816 56.832L35.1536 54.48H40.2416V63H39.4136ZM47.2444 63.06C46.6444 63.06 46.1004 62.94 45.6124 62.7C45.1244 62.46 44.7044 62.136 44.3524 61.728C44.0004 61.312 43.7284 60.848 43.5364 60.336C43.3444 59.816 43.2484 59.284 43.2484 58.74C43.2484 58.172 43.3484 57.632 43.5484 57.12C43.7484 56.6 44.0284 56.14 44.3884 55.74C44.7564 55.332 45.1844 55.012 45.6724 54.78C46.1604 54.54 46.6884 54.42 47.2564 54.42C47.8564 54.42 48.4004 54.544 48.8884 54.792C49.3764 55.04 49.7924 55.372 50.1364 55.788C50.4884 56.204 50.7604 56.668 50.9524 57.18C51.1444 57.692 51.2404 58.216 51.2404 58.752C51.2404 59.32 51.1404 59.864 50.9404 60.384C50.7404 60.896 50.4604 61.356 50.1004 61.764C49.7404 62.164 49.3164 62.48 48.8284 62.712C48.3404 62.944 47.8124 63.06 47.2444 63.06ZM44.0884 58.74C44.0884 59.204 44.1644 59.652 44.3164 60.084C44.4684 60.508 44.6844 60.888 44.9644 61.224C45.2444 61.552 45.5764 61.816 45.9604 62.016C46.3524 62.208 46.7804 62.304 47.2444 62.304C47.7324 62.304 48.1684 62.204 48.5524 62.004C48.9444 61.796 49.2764 61.524 49.5484 61.188C49.8284 60.844 50.0404 60.46 50.1844 60.036C50.3284 59.612 50.4004 59.18 50.4004 58.74C50.4004 58.276 50.3244 57.832 50.1724 57.408C50.0204 56.984 49.8004 56.604 49.5124 56.268C49.2324 55.932 48.9004 55.668 48.5164 55.476C48.1324 55.284 47.7084 55.188 47.2444 55.188C46.7644 55.188 46.3284 55.288 45.9364 55.488C45.5524 55.688 45.2204 55.96 44.9404 56.304C44.6684 56.64 44.4564 57.02 44.3044 57.444C44.1604 57.868 44.0884 58.3 44.0884 58.74ZM60.6721 60.804C60.6721 61.228 60.5641 61.608 60.3481 61.944C60.1321 62.272 59.8401 62.532 59.4721 62.724C59.1121 62.908 58.7161 63 58.2841 63H54.2641V54.48H58.3681C58.7681 54.48 59.1121 54.588 59.4001 54.804C59.6961 55.012 59.9201 55.284 60.0721 55.62C60.2321 55.948 60.3121 56.292 60.3121 56.652C60.3121 57.076 60.2041 57.468 59.9881 57.828C59.7721 58.188 59.4721 58.456 59.0881 58.632C59.5761 58.776 59.9601 59.044 60.2401 59.436C60.5281 59.828 60.6721 60.284 60.6721 60.804ZM59.8321 60.66C59.8321 60.372 59.7681 60.108 59.6401 59.868C59.5121 59.62 59.3361 59.42 59.1121 59.268C58.8961 59.116 58.6481 59.04 58.3681 59.04H55.1041V62.268H58.2841C58.5721 62.268 58.8321 62.192 59.0641 62.04C59.2961 61.888 59.4801 61.692 59.6161 61.452C59.7601 61.204 59.8321 60.94 59.8321 60.66ZM55.1041 55.212V58.356H58.0321C58.3121 58.356 58.5601 58.284 58.7761 58.14C58.9921 57.988 59.1641 57.792 59.2921 57.552C59.4201 57.312 59.4841 57.056 59.4841 56.784C59.4841 56.496 59.4241 56.236 59.3041 56.004C59.1841 55.764 59.0201 55.572 58.8121 55.428C58.6041 55.284 58.3681 55.212 58.1041 55.212H55.1041ZM63.7443 63V54.48H64.5723V61.848L69.8523 54.48H70.6323V63H69.8043V55.764L64.5843 63H63.7443ZM74.3015 63V54.48H75.1295V61.848L80.4095 54.48H81.1895V63H80.3615V55.764L75.1415 63H74.3015ZM77.7575 53.76C77.3655 53.76 77.0335 53.704 76.7615 53.592C76.4975 53.472 76.2975 53.312 76.1615 53.112C76.0255 52.904 75.9535 52.68 75.9455 52.44H76.6055C76.6135 52.648 76.6975 52.836 76.8575 53.004C77.0255 53.172 77.3255 53.256 77.7575 53.256C78.1735 53.256 78.4655 53.18 78.6335 53.028C78.8015 52.868 78.8895 52.672 78.8975 52.44H79.5575C79.5495 52.68 79.4775 52.904 79.3415 53.112C79.2055 53.312 79.0055 53.472 78.7415 53.592C78.4855 53.704 78.1575 53.76 77.7575 53.76ZM89.3092 63V54.48H90.1492V58.272H91.4332L94.3612 54.48H95.3332L92.1292 58.608L95.5372 63H94.5052L91.4572 59.04H90.1492V63H89.3092ZM101.318 63.06C100.718 63.06 100.174 62.94 99.686 62.7C99.198 62.46 98.778 62.136 98.426 61.728C98.074 61.312 97.802 60.848 97.61 60.336C97.418 59.816 97.322 59.284 97.322 58.74C97.322 58.172 97.422 57.632 97.622 57.12C97.822 56.6 98.102 56.14 98.462 55.74C98.83 55.332 99.258 55.012 99.746 54.78C100.234 54.54 100.762 54.42 101.33 54.42C101.93 54.42 102.474 54.544 102.962 54.792C103.45 55.04 103.866 55.372 104.21 55.788C104.562 56.204 104.834 56.668 105.026 57.18C105.218 57.692 105.314 58.216 105.314 58.752C105.314 59.32 105.214 59.864 105.014 60.384C104.814 60.896 104.534 61.356 104.174 61.764C103.814 62.164 103.39 62.48 102.902 62.712C102.414 62.944 101.886 63.06 101.318 63.06ZM98.162 58.74C98.162 59.204 98.238 59.652 98.39 60.084C98.542 60.508 98.758 60.888 99.038 61.224C99.318 61.552 99.65 61.816 100.034 62.016C100.426 62.208 100.854 62.304 101.318 62.304C101.806 62.304 102.242 62.204 102.626 62.004C103.018 61.796 103.35 61.524 103.622 61.188C103.902 60.844 104.114 60.46 104.258 60.036C104.402 59.612 104.474 59.18 104.474 58.74C104.474 58.276 104.398 57.832 104.246 57.408C104.094 56.984 103.874 56.604 103.586 56.268C103.306 55.932 102.974 55.668 102.59 55.476C102.206 55.284 101.782 55.188 101.318 55.188C100.838 55.188 100.402 55.288 100.01 55.488C99.626 55.688 99.294 55.96 99.014 56.304C98.742 56.64 98.53 57.02 98.378 57.444C98.234 57.868 98.162 58.3 98.162 58.74ZM115.886 63V56.064L112.802 61.452H112.274L109.178 56.064V63H108.338V54.48H109.202L112.526 60.312L115.874 54.48H116.726V63H115.886ZM120.301 63V54.48H126.733V63H125.893V55.224H121.141V63H120.301ZM136.068 63V55.224H132.588L132.54 57.024C132.5 58.2 132.416 59.176 132.288 59.952C132.16 60.728 131.98 61.34 131.748 61.788C131.516 62.228 131.232 62.544 130.896 62.736C130.56 62.92 130.16 63.012 129.696 63.012V62.268C130.008 62.268 130.284 62.188 130.524 62.028C130.764 61.868 130.968 61.588 131.136 61.188C131.304 60.788 131.436 60.236 131.532 59.532C131.636 58.82 131.704 57.92 131.736 56.832L131.808 54.48H136.896V63H136.068ZM146.19 62.256V63H140.466V54.48H146.082V55.224H141.306V58.296H145.47V59.004H141.306V62.256H146.19ZM149.219 63V54.48H150.059V58.272H151.343L154.271 54.48H155.243L152.039 58.608L155.447 63H154.415L151.367 59.04H150.059V63H149.219ZM157.232 58.68C157.232 58.16 157.32 57.652 157.496 57.156C157.68 56.652 157.944 56.196 158.288 55.788C158.632 55.372 159.056 55.044 159.56 54.804C160.064 54.556 160.636 54.432 161.276 54.432C162.036 54.432 162.684 54.608 163.22 54.96C163.764 55.304 164.164 55.748 164.42 56.292L163.76 56.7C163.576 56.324 163.344 56.028 163.064 55.812C162.784 55.588 162.484 55.428 162.164 55.332C161.852 55.236 161.54 55.188 161.228 55.188C160.716 55.188 160.264 55.292 159.872 55.5C159.48 55.7 159.148 55.972 158.876 56.316C158.612 56.652 158.412 57.032 158.276 57.456C158.14 57.872 158.072 58.296 158.072 58.728C158.072 59.2 158.152 59.652 158.312 60.084C158.472 60.516 158.696 60.9 158.984 61.236C159.272 61.564 159.608 61.828 159.992 62.028C160.384 62.22 160.808 62.316 161.264 62.316C161.584 62.316 161.912 62.26 162.248 62.148C162.584 62.036 162.896 61.864 163.184 61.632C163.48 61.4 163.716 61.1 163.892 60.732L164.588 61.092C164.412 61.516 164.14 61.876 163.772 62.172C163.404 62.468 162.992 62.692 162.536 62.844C162.088 62.996 161.648 63.072 161.216 63.072C160.632 63.072 160.096 62.948 159.608 62.7C159.12 62.444 158.696 62.108 158.336 61.692C157.984 61.268 157.712 60.796 157.52 60.276C157.328 59.748 157.232 59.216 157.232 58.68Z" fill="white"/>
</svg>
